<?xml version="1.0" encoding="UTF-8" standalone="no"?>
<!-- Created with Inkscape (http://www.inkscape.org/) -->

<svg
   version="1.1"
   id="svg9"
   width="1213.0542"
   height="1206.9049"
   viewBox="0 0 1213.0542 1206.9049"
   sodipodi:docname="Logo.svg"
   inkscape:version="1.1.1 (3bf5ae0d25, 2021-09-20)"
   xmlns:inkscape="http://www.inkscape.org/namespaces/inkscape"
   xmlns:sodipodi="http://sodipodi.sourceforge.net/DTD/sodipodi-0.dtd"
   xmlns="http://www.w3.org/2000/svg"
   xmlns:svg="http://www.w3.org/2000/svg">
  <defs
     id="defs13" />
  <sodipodi:namedview
     id="namedview11"
     pagecolor="#ffffff"
     bordercolor="#666666"
     borderopacity="1.0"
     inkscape:pageshadow="2"
     inkscape:pageopacity="0.0"
     inkscape:pagecheckerboard="0"
     showgrid="false"
     inkscape:zoom="0.59377317"
     inkscape:cx="652.60612"
     inkscape:cy="700.60424"
     inkscape:window-width="1278"
     inkscape:window-height="1000"
     inkscape:window-x="1273"
     inkscape:window-y="0"
     inkscape:window-maximized="0"
     inkscape:current-layer="g15" />
  <g
     inkscape:groupmode="layer"
     inkscape:label="Image"
     id="g15"
     transform="translate(-59.394561,-77.775015)">
    <path
       style="fill:#f8f9fa;stroke-width:0.897039"
       d="m 112.33129,1284.1114 c -13.059329,-1.914 -24.403859,-7.771 -34.597879,-17.8624 -6.23014,-6.1673 -8.45405,-9.1297 -11.45704,-15.2614 -2.04946,-4.1848 -4.43629,-10.2269 -5.30405,-13.427 -1.49633,-5.518 -1.57776,-34.2295 -1.57776,-556.32399 0,-458.39837 0.20252,-551.32937 1.21038,-555.42887 0.66571,-2.70777 2.96112,-8.5485 5.10091,-12.9794 6.45718,-13.370949 15.3198,-22.195906 28.74781,-28.62564 4.44981,-2.130702 10.315469,-4.416359 13.034799,-5.079238 7.37565,-1.79793 1109.12184,-1.79793 1116.49744,0 7.1983,1.754695 20.429,8.360009 25.6433,12.802191 9.5854,8.165967 16.9718,19.509557 20.8967,32.091827 1.4401,4.61685 1.5507,39.04162 1.7769,553.19104 0.271,615.65858 0.9509,557.21868 -6.6653,572.88388 -3.487,7.172 -5.3476,9.7023 -11.8808,16.1566 -8.3144,8.214 -15.1351,12.365 -26.6245,16.2036 l -6.2926,2.1024 -551.95608,0.115 c -303.57584,0.064 -554.02435,-0.1881 -556.55223,-0.5586 z M 1165.5541,681.23661 V 183.99127 H 665.73719 165.92029 v 497.24534 497.24529 h 499.8169 499.81691 z M 372.36583,1079.12 c -9.15128,-1.1745 -12.93287,-5.379 -14.17201,-15.7569 -0.51685,-4.3287 -0.74761,-152.55375 -0.5956,-382.57405 0.22737,-344.04443 0.37027,-375.77002 1.70547,-378.64047 1.71594,-3.68897 4.68401,-6.58281 8.43116,-8.22034 2.19252,-0.95815 34.55361,-1.22458 173.04811,-1.42472 107.70824,-0.15565 173.27809,0.0784 178.31046,0.63651 4.58918,0.50894 9.72763,1.70712 12.13584,2.82983 3.24973,1.51503 30.08431,27.69581 120.91436,117.96838 64.20568,63.81167 117.90678,117.81201 119.33578,120.00077 3.1555,4.83335 3.3717,9.32131 0.705,14.63007 -1.2864,2.56067 -24.7739,26.4353 -73.2764,74.48401 -39.2608,38.89345 -71.37791,71.11253 -71.3714,71.59796 0.006,0.48543 33.1434,33.91857 73.6375,74.29588 59.6298,59.45769 74.08,74.32114 76.0154,78.18902 1.622,3.24177 2.6717,7.29191 3.2679,12.60931 0.5357,4.77761 0.7777,46.73915 0.6203,107.56321 -0.2072,80.07763 -0.4913,100.25883 -1.4417,102.41503 -1.6445,3.7313 -4.5507,6.6867 -8.2554,8.3954 -2.8794,1.328 -28.1935,1.4605 -298.4518,1.5634 -162.41802,0.062 -297.67136,-0.1912 -300.56297,-0.5623 z M 570.44836,933.12122 v -40.3757 l -38.09859,-38.38186 c -20.95423,-21.11002 -45.02365,-45.07603 -53.4876,-53.2578 l -15.38901,-14.87595 v 93.63351 93.63351 h 53.4876 53.4876 z m 305.64344,-0.0397 V 892.66605 L 670.00721,687.67769 463.92263,482.68931 l -0.2298,76.88944 -0.2298,76.88944 169.23174,168.51437 169.23175,168.51437 h 37.08264 37.08264 V 933.0815 Z m -84.51547,-352.11658 39.09034,-38.94498 -71.89995,-71.59861 -71.89996,-71.59861 h -78.65898 -78.65897 l 111.01774,110.54869 c 61.05977,60.80179 111.22064,110.54641 111.46859,110.5436 0.24797,-0.003 18.0415,-17.53034 39.54119,-38.95009 z"
       id="path232" />
  </g>
</svg>
